<svg width="16" height="16" viewBox="0 0 16 16" fill="none" xmlns="http://www.w3.org/2000/svg">
<path d="M9.33366 7.33334H5.33366M6.66699 10H5.33366M10.667 4.66667H5.33366M13.3337 4.53334V11.4667C13.3337 12.5868 13.3337 13.1468 13.1157 13.5747C12.9239 13.951 12.618 14.2569 12.2416 14.4487C11.8138 14.6667 11.2538 14.6667 10.1337 14.6667H5.86699C4.74689 14.6667 4.18683 14.6667 3.75901 14.4487C3.38269 14.2569 3.07673 13.951 2.88498 13.5747C2.66699 13.1468 2.66699 12.5868 2.66699 11.4667V4.53334C2.66699 3.41323 2.66699 2.85318 2.88498 2.42535C3.07673 2.04903 3.38269 1.74307 3.75901 1.55132C4.18683 1.33334 4.74689 1.33334 5.86699 1.33334H10.1337C11.2538 1.33334 11.8138 1.33334 12.2416 1.55132C12.618 1.74307 12.9239 2.04903 13.1157 2.42535C13.3337 2.85318 13.3337 3.41323 13.3337 4.53334Z" stroke="black" stroke-width="1.33333" stroke-linecap="round" stroke-linejoin="round"/>
</svg>
